<?xml version="1.0" encoding="utf-8"?>
<!-- Generator: Adobe Illustrator 22.0.0, SVG Export Plug-In . SVG Version: 6.00 Build 0)  -->
<svg version="1.1" id="Layer_1_1_" xmlns="http://www.w3.org/2000/svg" xmlns:xlink="http://www.w3.org/1999/xlink" x="0px" y="0px"
	 viewBox="0 0 64 64" style="enable-background:new 0 0 64 64;" xml:space="preserve">
<style type="text/css">
	.st0{fill:#2399D6;}
	.st1{fill:#3F3A34;}
</style>
<g>
	<g>
		<circle class="st0" cx="32" cy="26" r="15"/>
	</g>
	<path class="st1" d="M61,31.2v-8.4c1.2-0.4,2-1.5,2-2.8c0-1.7-1.3-3-3-3c-0.3,0-0.7,0.1-1,0.2l-4.5-5.6c0.3-0.5,0.5-1,0.5-1.6
		c0-1.7-1.3-3-3-3c-0.8,0-1.6,0.3-2.1,0.9L42,4.3c0-0.1,0-0.2,0-0.3c0-1.7-1.3-3-3-3c-1.3,0-2.4,0.8-2.8,2H24.8
		c-0.4-1.2-1.5-2-2.8-2c-1.7,0-3,1.3-3,3c0,0.1,0,0.2,0,0.4l-5,2.5C13.5,6.3,12.8,6,12,6c-1.7,0-3,1.3-3,3c0,0.6,0.2,1.1,0.5,1.6
		L5,16.2C4.7,16.1,4.3,16,4,16c-1.7,0-3,1.3-3,3c0,1.3,0.8,2.4,2,2.8v6.4c-1.2,0.4-2,1.5-2,2.8c0,1.7,1.3,3,3,3
		c1.1,0,2.1-0.6,2.6-1.5l5.5,1c0.2,1.4,1.5,2.5,3,2.5c0,0,0.1,0,0.1,0l1.9,4.8c-0.6,0.6-1,1.3-1,2.2c0,1.7,1.3,3,3,3
		c1,0,1.9-0.5,2.4-1.3l8.6,2.5c0.1,1.2,0.9,2.2,2,2.6v7.4c-1.2,0.4-2,1.5-2,2.8c0,1.7,1.3,3,3,3s3-1.3,3-3c0-1.3-0.8-2.4-2-2.8v-7.4
		c1.2-0.4,2-1.5,2-2.8c0-1-0.5-1.8-1.2-2.4l1.2-3.6l9,3c0,1.3,0.8,2.4,2,2.8v10.4c-1.2,0.4-2,1.5-2,2.8c0,1.7,1.3,3,3,3s3-1.3,3-3
		c0-1.3-0.8-2.4-2-2.8V46.8c1.2-0.4,2-1.5,2-2.8c0-0.4-0.1-0.7-0.2-1l7.7-6.4c0.4,0.3,1,0.4,1.5,0.4c1.7,0,3-1.3,3-3
		C63,32.7,62.2,31.6,61,31.2z M18,32.9c0-0.1,0-0.2,0-0.4l8.2-4.3l2.5,8.2L18,32.9z M15.8,30.1l-1.4-10.6l6.9-0.3
		c0.4,1.1,1.5,1.8,2.7,1.8l1.7,5.4L17,30.8C16.7,30.5,16.2,30.2,15.8,30.1z M6.8,17.9c-0.1-0.2-0.1-0.3-0.2-0.4l4.5-5.6
		c0.1,0,0.2,0.1,0.4,0.1l0.7,5.7L6.8,17.9z M13.4,11.7c1-0.5,1.6-1.5,1.6-2.7c0-0.1,0-0.2,0-0.4l5-2.5C20.5,6.7,21.2,7,22,7
		c0.6,0,1.2-0.2,1.7-0.5l6.2,4.7l-4.5,4.2C25,15.1,24.5,15,24,15c-1.4,0-2.5,0.9-2.9,2.1l-7,0.4L13.4,11.7z M36.3,5.2l-4.9,4.6L25,5
		h11.2C36.2,5.1,36.2,5.1,36.3,5.2z M39,19.4l-8,4.2l-4.3-4.3c0.2-0.4,0.3-0.8,0.3-1.3c0-0.4-0.1-0.8-0.3-1.2l4.7-4.4l7.7,5.7
		C39.1,18.4,39,18.7,39,19C39,19.1,39,19.3,39,19.4z M25,18c0,0.6-0.4,1-1,1s-1-0.4-1-1s0.4-1,1-1S25,17.4,25,18z M29.1,24.5
		l-1.8,0.9l-1.2-3.9L29.1,24.5z M28,27.4l2.6-1.4l4.7,4.7C35.1,31.1,35,31.5,35,32c0,1,0.5,1.8,1.2,2.4l-1.4,4.2L31,37.3L28,27.4z
		 M38,33c-0.6,0-1-0.4-1-1s0.4-1,1-1s1,0.4,1,1C39,32.6,38.6,33,38,33z M38,29c-0.5,0-0.9,0.1-1.3,0.3l-4.2-4.2l7.5-3.9
		c0.5,0.5,1.3,0.8,2,0.8c0.6,0,1.1-0.2,1.5-0.4l4.6,3.8L40,29.8C39.5,29.3,38.8,29,38,29z M50.6,12.6C51,12.9,51.5,13,52,13
		c0.3,0,0.7-0.1,1-0.2l4.5,5.6c-0.3,0.5-0.5,1-0.5,1.6c0,0.2,0,0.3,0,0.5L50,24.3L44.8,20c0.1-0.3,0.2-0.7,0.2-1
		c0-0.4-0.1-0.8-0.2-1.1L50.6,12.6z M58.5,31.4l-6.9-5.7l6.4-3.5c0.3,0.3,0.6,0.5,1,0.6v8.4C58.8,31.2,58.6,31.3,58.5,31.4z M43,19
		c0,0.6-0.4,1-1,1s-1-0.4-1-1s0.4-1,1-1S43,18.4,43,19z M49.7,26.7l7.2,6l-15.5-1.4L49.7,26.7z M61,20c0,0.6-0.4,1-1,1s-1-0.4-1-1
		s0.4-1,1-1S61,19.4,61,20z M52,9c0.6,0,1,0.4,1,1s-0.4,1-1,1s-1-0.4-1-1S51.4,9,52,9z M49,9.7c0,0.1,0,0.2,0,0.3
		c0,0.4,0.1,0.8,0.2,1.1l-5.8,5.2C43,16.1,42.5,16,42,16c-0.6,0-1.2,0.2-1.7,0.5L33,11l4.6-4.3C38,6.9,38.5,7,39,7
		c0.8,0,1.6-0.3,2.1-0.9L49,9.7z M39,3c0.6,0,1,0.4,1,1s-0.4,1-1,1s-1-0.4-1-1S38.4,3,39,3z M22,3c0.6,0,1,0.4,1,1s-0.4,1-1,1
		s-1-0.4-1-1S21.4,3,22,3z M12,8c0.6,0,1,0.4,1,1s-0.4,1-1,1s-1-0.4-1-1S11.4,8,12,8z M4,18c0.6,0,1,0.4,1,1s-0.4,1-1,1s-1-0.4-1-1
		S3.4,18,4,18z M4,32c-0.6,0-1-0.4-1-1s0.4-1,1-1s1,0.4,1,1S4.6,32,4,32z M5,28.2v-6.4c0.9-0.3,1.6-1,1.9-2l5.5-0.3l1.4,10.7
		c-0.6,0.3-1,0.7-1.4,1.2l-5.5-1C6.8,29.4,6,28.5,5,28.2z M14,33c0-0.6,0.4-1,1-1s1,0.4,1,1s-0.4,1-1,1S14,33.6,14,33z M17,35.2
		c0.1-0.1,0.3-0.3,0.4-0.4l12.1,4l1.8,5.7c-0.2,0.2-0.5,0.4-0.6,0.7L22,42.8c-0.1-1.6-1.4-2.8-3-2.8c0,0-0.1,0-0.1,0L17,35.2z
		 M19,44c-0.6,0-1-0.4-1-1s0.4-1,1-1s1,0.4,1,1S19.6,44,19,44z M33,61c-0.6,0-1-0.4-1-1s0.4-1,1-1s1,0.4,1,1S33.6,61,33,61z M33,48
		c-0.6,0-1-0.4-1-1s0.4-1,1-1s1,0.4,1,1S33.6,48,33,48z M33,43.7l-1.3-4.1l2.4,0.8L33,43.7z M38.1,35c1.2,0,2.2-0.7,2.7-1.7
		l16.4,1.5c0,0.1,0.1,0.2,0.1,0.3l-7.7,6.4c-0.4-0.3-1-0.4-1.5-0.4c-1,0-1.8,0.5-2.4,1.2l-9-3L38.1,35z M48,61c-0.6,0-1-0.4-1-1
		s0.4-1,1-1s1,0.4,1,1S48.6,61,48,61z M48,45c-0.6,0-1-0.4-1-1s0.4-1,1-1s1,0.4,1,1S48.6,45,48,45z M60,35c-0.6,0-1-0.4-1-1
		s0.4-1,1-1s1,0.4,1,1S60.6,35,60,35z"/>
	<g>
		<rect x="3" y="1" class="st0" width="2" height="2"/>
	</g>
	<g>
		<rect x="3" y="5" class="st0" width="2" height="2"/>
	</g>
	<g>
		<rect x="5" y="3" class="st0" width="2" height="2"/>
	</g>
	<g>
		<rect x="1" y="3" class="st0" width="2" height="2"/>
	</g>
	<g>
		<rect x="53" y="47" class="st0" width="2" height="2"/>
	</g>
	<g>
		<rect x="53" y="51" class="st0" width="2" height="2"/>
	</g>
	<g>
		<rect x="55" y="49" class="st0" width="2" height="2"/>
	</g>
	<g>
		<rect x="51" y="49" class="st0" width="2" height="2"/>
	</g>
	<g>
		<rect x="59" y="5" class="st0" width="2" height="2"/>
	</g>
	<g>
		<rect x="59" y="9" class="st0" width="2" height="2"/>
	</g>
	<g>
		<rect x="61" y="7" class="st0" width="2" height="2"/>
	</g>
	<g>
		<rect x="57" y="7" class="st0" width="2" height="2"/>
	</g>
	<g>
		<rect x="13" y="49" class="st0" width="2" height="2"/>
	</g>
	<g>
		<rect x="13" y="53" class="st0" width="2" height="2"/>
	</g>
	<g>
		<rect x="15" y="51" class="st0" width="2" height="2"/>
	</g>
	<g>
		<rect x="11" y="51" class="st0" width="2" height="2"/>
	</g>
	<g>
		<rect x="7" y="38" class="st0" width="2" height="2"/>
	</g>
	<g>
		<rect x="7" y="42" class="st0" width="2" height="2"/>
	</g>
	<g>
		<rect x="9" y="40" class="st0" width="2" height="2"/>
	</g>
	<g>
		<rect x="5" y="40" class="st0" width="2" height="2"/>
	</g>
</g>
</svg>
